<svg xmlns="http://www.w3.org/2000/svg" width="24" height="24" viewBox="0 0 500 500" fill="#ffffff">
  <path d="M449.279 149.533c-5.645-3.895-12.79-4.791-19.206-2.333l-75.925 28.912v-9.436c0-34.453-28.037-62.49-62.49-62.49h-187.47c-34.453 0-62.49 28.037-62.49 62.49v166.64c0 34.453 28.037 62.49 62.49 62.49h187.47c34.453 0 62.49-28.037 62.49-62.49v-9.436l75.925 28.912a20.6 20.6 0 0 0 7.395 1.354c4.166 0 8.29-1.25 11.81-3.687a20.82 20.82 0 0 0 9.02-17.143v-166.64a20.82 20.82 0 0 0-9.02-17.143"/>
</svg>