<svg xmlns="http://www.w3.org/2000/svg" width="500" height="500" style="width:100%;height:100%;transform:translate3d(0,0,0);content-visibility:visible" viewBox="0 0 500 500"><defs><clipPath id="e"><path d="M0 0h500v500H0z"/></clipPath><clipPath id="i"><path d="M0 0h500v500H0z"/></clipPath><clipPath id="h"><path d="M0 0h500v500H0z"/></clipPath><clipPath id="f"><path d="M0 0h500v500H0z"/></clipPath><filter id="a" width="100%" height="100%" x="0%" y="0%" filterUnits="objectBoundingBox"><feComponentTransfer in="SourceGraphic"><feFuncA tableValues="1.0 0.0" type="table"/></feComponentTransfer></filter><filter id="c" width="100%" height="100%" x="0%" y="0%" filterUnits="objectBoundingBox"><feComponentTransfer in="SourceGraphic"><feFuncA tableValues="1.0 0.0" type="table"/></feComponentTransfer></filter><mask id="j" mask-type="alpha" maskUnits="userSpaceOnUse"><g filter="url(#a)"><path fill="#fff" d="M0 0h500v500H0z" opacity="0"/><use xmlns:ns1="http://www.w3.org/1999/xlink" ns1:href="#b"/></g></mask><mask id="g" mask-type="alpha" maskUnits="userSpaceOnUse"><g filter="url(#c)"><path fill="#fff" d="M0 0h500v500H0z" opacity="0"/><use xmlns:ns2="http://www.w3.org/1999/xlink" ns2:href="#d"/></g></mask><g id="b" class="primary design" style="display:none"><path class="primary"/></g><g id="d" class="primary design" style="display:none"><path class="primary"/></g></defs><g clip-path="url(#e)"><g clip-path="url(#f)" style="display:none"><g class="primary design" mask="url(#g)" style="display:none"><path class="primary"/><path fill="none" class="primary"/><path fill="none" class="primary"/><path fill="none" class="primary"/><path class="primary"/></g><g fill="none" class="primary design" style="display:none"><path class="primary"/><path class="primary"/></g><g class="primary design" style="display:none"><path class="primary"/></g><g class="primary design" style="display:none"><path class="primary"/></g><g class="primary design" style="display:none"><path class="primary"/><path fill="none" class="primary"/></g></g><g class="primary design" clip-path="url(#h)" style="display:block"><path fill="#FFF" d="M449.279 149.533c-5.645-3.895-12.79-4.791-19.206-2.333l-75.925 28.912v-9.436c0-34.453-28.037-62.49-62.49-62.49h-187.47c-34.453 0-62.49 28.037-62.49 62.49v166.64c0 34.453 28.037 62.49 62.49 62.49h187.47c34.453 0 62.49-28.037 62.49-62.49v-9.436l75.925 28.912a20.6 20.6 0 0 0 7.395 1.354c4.166 0 8.29-1.25 11.81-3.687a20.82 20.82 0 0 0 9.02-17.143v-166.64a20.82 20.82 0 0 0-9.02-17.143" class="primary"/></g><g clip-path="url(#i)" style="display:none"><g class="primary design" mask="url(#j)" style="display:none"><path class="primary"/><path fill="none" class="primary"/><path fill="none" class="primary"/><path fill="none" class="primary"/><path class="primary"/></g><g fill="none" class="primary design" style="display:none"><path class="primary"/><path class="primary"/></g><g class="primary design" style="display:none"><path class="primary"/></g><g class="primary design" style="display:none"><path class="primary"/></g></g></g></svg>